<svg xmlns="http://www.w3.org/2000/svg" width="104" height="89" viewBox="0 0 104 89">
  <g fill="none">
    <circle cx="13.336" cy="9.136" r="8.165" fill="#000"/>
    <path fill="#B60D0D" d="M31.933,22.416 L21.329,24.371 L21.31,23.524 C21.302,23.2 21.263,22.884 21.208,22.575 L26.436,18.932 L43.047,17.79 L42.616,11.523 L24.271,12.785 L17.14,17.753 C16.437,17.502 15.68,17.366 14.889,17.384 L13.928,17.405 C10.461,17.483 7.711,20.357 7.789,23.826 L8.307,47.059 C8.333,48.232 8.685,49.319 9.266,50.247 L0.912,84.93 L7.018,86.401 L15.017,53.193 L15.686,53.178 C15.766,53.176 15.843,53.165 15.921,53.16 L17.032,68.682 L22.383,85.225 L28.36,83.291 L23.244,67.473 L21.91,48.837 L21.505,48.865 C21.724,48.203 21.843,47.495 21.826,46.758 L21.469,30.732 L33.071,28.593 L31.933,22.416 Z"/>
    <g transform="translate(30 10)">
      <circle cx="29.404" cy="8.56" r="8.165" fill="#000"/>
      <path fill="#346A16" d="M27.177,24.315 L44.763,24.854 L44.956,18.576 L27.308,18.035 C26.887,17.269 26.306,16.577 25.559,16.021 L24.788,15.446 C22.005,13.376 18.071,13.953 16,16.734 L2.124,35.378 C0.133,38.052 0.594,41.787 3.105,43.913 L4.261,62.315 L0.219,77.227 L6.281,78.872 L10.594,62.956 L9.515,45.777 C9.824,45.697 10.125,45.59 10.419,45.464 L17.405,54.828 L10.551,74.712 L16.489,76.759 L24.427,53.735 L14.862,40.913 L19.4,34.816 L22.338,40.449 L39.188,38.162 L38.343,31.938 L25.866,33.631 L23.565,29.219 L26.847,24.81 C26.966,24.649 27.074,24.483 27.177,24.315 Z"/>
    </g>
    <g transform="translate(51 63)">
      <circle cx="34.037" cy="8.275" r="8.165" fill="#000"/>
      <path fill="#B60D0D" d="M52.547,19.406 L50.711,13.4 L33.294,18.724 L27.166,15.195 C27.233,14.304 27.118,13.384 26.78,12.494 L26.439,11.596 C25.208,8.354 21.58,6.721 18.337,7.953 L8.972,11.51 L9.715,17.186 L7.484,18.481 L0.296,17.897 L0.041,21.028 L8.208,21.692 L11.074,20.03 L14.034,24.051 L23.137,20.596 C23.297,20.535 23.45,20.463 23.602,20.393 L32.522,25.528 L52.547,19.406 Z"/>
    </g>
  </g>
</svg>
